#!OML:ASF F:\VICON\USERDATA\INSTALL\Justin_Nancy\Justin_Nancy.ASF
:FULLY-SPECIFIED
:DEGREES
374
root -2.10971 17.6262 13.0896 28.6012 80.4065 23.4304
lowerback 8.6243 2.03502 -3.40224
upperback 0.113907 2.40955 0.598823
thorax -4.88764 1.28247 2.22706
lowerneck -17.8017 -3.54339 -8.96604
upperneck 21.7266 -2.9841 3.22356
head 10.0689 -1.68345 2.22288
rclavicle -1.02374e-014 -3.97569e-015
rhumerus -27.4093 -12.4348 -81.0947
rradius 35.7653
rwrist 3.52768
rhand -14.4451 13.2702
rfingers 7.12502
rthumb 11.6999 -16.3831
lclavicle -1.02374e-014 -3.97569e-015
lhumerus -38.7275 26.9728 71.1505
lradius 19.3258
lwrist -15.292
lhand -14.3078 23.3732
lfingers 7.12502
lthumb 11.8323 53.019
rfemur -12.1987 -14.2115 14.6966
rtibia 60.1537
rfoot 3.95609 -10.6178
rtoes 2.24699
lfemur -19.0097 2.99638 -31.8432
ltibia 20.3622
lfoot -5.66092 0.622701
ltoes 24.0038
375
root -1.97091 17.6495 13.2617 7.10574 81.3091 2.85102
lowerback 9.31041 2.09783 -2.06678
upperback 0.516306 2.7036 2.07688
thorax -4.8816 1.41631 2.96405
lowerneck -17.8098 -3.5161 -9.08598
upperneck 21.9312 -2.90663 3.23015
head 10.1417 -1.65801 2.25825
rclavicle 4.57205e-015 1.74931e-014
rhumerus -27.3518 -12.647 -81.034
rradius 35.6493
rwrist 3.25474
rhand -14.4449 12.8785
rfingers 7.12502
rthumb 11.7001 -16.7747
lclavicle 4.57205e-015 1.74931e-014
lhumerus -38.2012 26.6431 72.1112
lradius 19.4738
lwrist -15.9755
lhand -14.5895 23.0497
lfingers 7.12502
lthumb 11.5607 52.7109
rfemur -12.2012 -12.4531 19.3039
rtibia 60.7864
rfoot 3.14674 -11.6023
rtoes 1.31419
lfemur -17.7104 2.54857 -27.4799
ltibia 21.1243
lfoot -6.50203 1.50602
ltoes 23.8558
376
root -1.85546 17.6399 13.2697 8.34361 81.0519 4.52842
lowerback 9.80598 2.13936 -2.38058
upperback 0.605555 2.72197 2.12375
thorax -5.08439 1.43502 3.17395
lowerneck -17.7036 -3.46335 -9.15593
upperneck 21.9435 -2.77674 3.0609
head 10.1175 -1.62364 2.22894
rclavicle -1.799e-014 7.15625e-015
rhumerus -27.3835 -13 -80.8721
rradius 35.5195
rwrist 3.40431
rhand -14.6991 12.768
rfingers 7.12502
rthumb 11.455 -16.899
lclavicle -1.799e-014 7.15625e-015
lhumerus -37.8885 26.8143 72.8336
lradius 19.6801
lwrist -16.5834
lhand -15.2036 23.1914
lfingers 7.12502
lthumb 10.9684 52.8849
rfemur -13.3675 -11.9399 18.8821
rtibia 61.7518
rfoot 2.69053 -10.5548
rtoes -1.46805
lfemur -17.2553 2.46344 -27.7199
ltibia 22.039
lfoot -7.50595 1.91675
ltoes 23.6823
377
root -1.73713 17.6302 13.2979 9.19717 81.1813 5.70165
lowerback 10.1047 2.14873 -2.56662
upperback 0.702294 2.70995 2.12502
thorax -5.15805 1.43369 3.27469
lowerneck -17.552 -3.5213 -9.07775
upperneck 21.8035 -2.86911 2.95292
head 10.0424 -1.67121 2.16432
rclavicle 2.21645e-014 3.26007e-014
rhumerus -27.5089 -13.5434 -80.7827
rradius 35.4878
rwrist 3.43459
rhand -15.3565 12.5394
rfingers 7.12502
rthumb 10.8209 -17.1619
lclavicle 2.21645e-014 3.26007e-014
lhumerus -37.1877 26.4926 73.5906
lradius 19.6823
lwrist -17.2512
lhand -16.6059 23.0649
lfingers 7.12502
lthumb 9.61564 52.8255
rfemur -14.5578 -11.5055 18.7485
rtibia 62.5375
rfoot 1.94228 -9.93869
rtoes -1.88289
lfemur -16.8875 2.16319 -27.7917
ltibia 22.9138
lfoot -8.43353 2.06655
ltoes 24.5483
378
root -1.62004 17.6186 13.3264 9.09278 81.5208 5.63173
lowerback 10.1133 2.06609 -2.43121
upperback 0.763854 2.61427 2.09311
thorax -5.08285 1.3816 3.17961
lowerneck -17.5242 -3.54996 -8.92594
upperneck 21.7063 -2.96246 2.96924
head 10.0051 -1.69928 2.13126
rclavicle -2.20651e-014 -2.62396e-014
rhumerus -27.5941 -13.8411 -80.8179
rradius 35.5218
rwrist 3.27115
rhand -15.2208 12.1949
rfingers 7.12502
rthumb 10.9518 -17.4994
lclavicle -2.20651e-014 -2.62396e-014
lhumerus -36.2664 25.4948 74.5491
lradius 19.8619
lwrist -17.3769
lhand -16.8081 22.9834
lfingers 7.12502
lthumb 9.42053 52.7528
rfemur -16.1292 -11.2501 18.9483
rtibia 63.6281
rfoot 0.529034 -9.45645
rtoes -2.23548
lfemur -16.3339 1.80305 -27.6532
ltibia 22.7904
lfoot -8.75936 1.95245
ltoes 26.0424
379
root -1.50708 17.6024 13.3103 17.3035 81.7936 13.2413
lowerback 9.53248 1.91089 -2.84664
upperback 0.581571 2.34117 1.62785
thorax -4.92453 1.2473 2.97987
lowerneck -17.5321 -3.5164 -8.76382
upperneck 21.7849 -2.947 2.91874
head 10.0293 -1.68495 2.08957
rclavicle 1.19271e-015 3.26007e-014
rhumerus -27.745 -14.0339 -80.8026
rradius 35.5174
rwrist 2.99022
rhand -15.3128 12.0396
rfingers 7.12502
rthumb 10.8631 -17.6595
lclavicle 1.19271e-015 3.26007e-014
lhumerus -35.5591 24.5939 75.3593
lradius 20.2957
lwrist -17.1313
lhand -16.642 22.9858
lfingers 7.12502
lthumb 9.58078 52.748
rfemur -18.5462 -11.6425 17.7165
rtibia 64.694
rfoot -1.13743 -8.39428
rtoes -1.63524
lfemur -16.5321 1.29843 -28.8996
ltibia 22.6977
lfoot -9.02414 1.76093
ltoes 27.5377
380
root -1.40867 17.5611 13.2299 37.5024 81.4779 32.4816
lowerback 8.78244 1.59559 -4.05882
upperback 0.202377 1.75881 0.66178
thorax -4.86316 0.976282 2.74613
lowerneck -17.5396 -3.54683 -8.98712
upperneck 21.915 -2.91672 2.90729
head 10.0809 -1.69137 2.12772
rclavicle -4.17448e-015 1.74931e-014
rhumerus -27.9703 -14.2352 -80.6084
rradius 35.5259
rwrist 2.8993
rhand -15.6042 12.1995
rfingers 7.12502
rthumb 10.5819 -17.5141
lclavicle -4.17448e-015 1.74931e-014
lhumerus -35.0938 24.3383 76.0754
lradius 20.7819
lwrist -17.083
lhand -17.4768 23.1621
lfingers 7.12502
lthumb 8.77525 52.9597
rfemur -21.6517 -13.0192 14.3378
rtibia 65.987
rfoot -2.96682 -6.7392
rtoes 0.544329
lfemur -17.0862 0.445329 -32.1726
ltibia 22.436
lfoot -9.22347 1.51649
ltoes 27.7408
381
root -1.28196 17.5538 13.2782 40.6801 82.4242 35.1207
lowerback 8.19491 1.29528 -3.99945
upperback 0.0414255 1.39451 0.864527
thorax -4.67589 0.795374 2.98093
lowerneck -17.3892 -3.62614 -9.23148
upperneck 21.9033 -2.99255 2.99785
head 10.0605 -1.73604 2.19071
rclavicle -1.49089e-014 0
rhumerus -28.1321 -14.7748 -80.4391
rradius 35.3269
rwrist 3.33861
rhand -15.6754 12.3046
rfingers 7.12502
rthumb 10.5133 -17.4125
lclavicle -1.49089e-014 0
lhumerus -34.6684 24.1803 76.768
lradius 21.2632
lwrist -17.2835
lhand -18.3872 23.3525
lfingers 7.12502
lthumb 7.8966 53.185
rfemur -23.7194 -13.1091 15.0132
rtibia 66.574
rfoot -4.37 -6.75836
rtoes 0.0446315
lfemur -17.1571 -0.0226377 -31.8498
ltibia 22.3368
lfoot -9.40999 1.09327
ltoes 26.6914
382
root -1.17677 17.5168 13.2808 47.0599 81.5052 41.7037
lowerback 8.5884 1.37257 -5.01309
upperback 0.00165248 1.35761 0.40465
thorax -4.95016 0.802594 3.06945
lowerneck -17.22 -3.60939 -9.21253
upperneck 21.8756 -3.04067 3.19383
head 10.0235 -1.73408 2.25198
rclavicle -1.05356e-014 -3.97569e-015
rhumerus -28.2464 -15.084 -80.47
rradius 35.0959
rwrist 3.42244
rhand -15.4311 12.1923
rfingers 7.12502
rthumb 10.749 -17.5127
lclavicle -1.05356e-014 -3.97569e-015
lhumerus -34.0994 23.2172 77.5748
lradius 21.8312
lwrist -16.4168
lhand -18.7058 23.4741
lfingers 7.12502
lthumb 7.58911 53.318
rfemur -25.3298 -12.7219 13.4512
rtibia 67.1224
rfoot -5.45888 -5.99722
rtoes -2.1092
lfemur -16.6261 -0.0915046 -33.3254
ltibia 22.412
lfoot -9.82741 1.33923
ltoes 26.2174
383
root -1.06582 17.4945 13.2895 47.4439 81.7413 42.1518
lowerback 8.77528 1.22473 -4.51201
upperback 0.0189833 1.1962 0.27394
thorax -5.00784 0.71021 2.66901
lowerneck -17.2105 -3.51252 -9.09802
upperneck 21.788 -2.95799 3.25852
head 9.98226 -1.6786 2.26693
rclavicle -2.10712e-014 -3.97569e-015
rhumerus -28.3956 -14.8029 -80.7083
rradius 35.0648
rwrist 3.57669
rhand -14.8313 11.8136
rfingers 7.12502
rthumb 11.3275 -17.8605
lclavicle -2.10712e-014 -3.97569e-015
lhumerus -33.2414 21.6078 78.4752
lradius 22.3259
lwrist -14.567
lhand -18.1241 23.7067
lfingers 7.12502
lthumb 8.15059 53.5295
rfemur -26.658 -12.2302 13.5239
rtibia 67.0626
rfoot -6.75809 -5.57717
rtoes -1.30568
lfemur -16.391 -0.0834413 -33.2446
ltibia 22.8833
lfoot -10.3974 1.28311
ltoes 26.0206
384
root -0.945667 17.4686 13.3285 47.6653 82.3077 42.3079
lowerback 8.69423 1.07265 -4.10106
upperback 0.0514436 1.04054 0.280957
thorax -4.90737 0.620935 2.46679
lowerneck -17.2609 -3.4369 -8.58952
upperneck 21.6708 -2.91655 2.94321
head 9.93189 -1.65298 2.07544
rclavicle -8.34896e-015 -4.77083e-015
rhumerus -28.4983 -15.2836 -80.6669
rradius 34.5476
rwrist 4.87164
rhand -14.3032 13.3936
rfingers 7.12502
rthumb 11.8368 -16.2519
lclavicle -8.34896e-015 -4.77083e-015
lhumerus -32.4933 19.9652 79.3298
lradius 22.9932
lwrist -13.0826
lhand -17.8034 23.5094
lfingers 7.12502
lthumb 8.46003 53.3199
rfemur -27.9949 -11.646 14.0192
rtibia 66.7093
rfoot -7.95978 -5.4333
rtoes 1.1418
lfemur -16.4102 -0.0412009 -32.9473
ltibia 23.6086
lfoot -11.0991 1.6057
ltoes 22.9927
385
root -0.829764 17.4248 13.3527 51.2552 82.6243 45.8722
lowerback 8.70528 0.947184 -4.09431
upperback 0.0735902 0.874979 0.287604
thorax -4.87798 0.53837 2.49157
lowerneck -17.3138 -3.43499 -8.42832
upperneck 21.7289 -2.92785 2.83973
head 9.95852 -1.65685 2.01072
rclavicle 2.38542e-015 5.56597e-015
rhumerus -28.5862 -15.4147 -80.7106
rradius 34.3937
rwrist 4.43501
rhand -15.359 13.1141
rfingers 7.12502
rthumb 10.8185 -16.5873
lclavicle 2.38542e-015 5.56597e-015
lhumerus -31.8948 18.6812 80.3198
lradius 23.7268
lwrist -12.0004
lhand -17.9217 23.86
lfingers 7.12502
lthumb 8.34586 53.6751
rfemur -29.2957 -11.368 13.912
rtibia 66.2622
rfoot -8.81908 -5.06336
rtoes 2.64507
lfemur -16.512 1.31961 -33.5156
ltibia 24.3872
lfoot -11.4451 1.29492
ltoes 4.78202
386
root -0.711995 17.4423 13.3384 49.1027 83.4246 43.9296
lowerback 9.12418 0.768204 -2.8537
upperback 0.117999 0.759426 0.468179
thorax -5.04285 0.456071 1.99285
lowerneck -17.5053 -3.45775 -8.76132
upperneck 21.9202 -2.92492 3.15638
head 10.0736 -1.64744 2.17862
rclavicle 7.35503e-015 8.74653e-015
rhumerus -28.7109 -14.7127 -80.9233
rradius 34.4654
rwrist 3.25344
rhand -16.3999 12.1003
rfingers 7.12502
rthumb 9.8144 -17.651
lclavicle 7.35503e-015 8.74653e-015
lhumerus -31.4799 18.2768 80.9905
lradius 24.4639
lwrist -11.3921
lhand -18.1998 23.7375
lfingers 7.12502
lthumb 8.07754 53.5631
rfemur -29.9134 -11.1515 14.6073
rtibia 65.2418
rfoot -9.31857 -4.62061
rtoes 0.877149
lfemur -16.0905 -0.568007 -32.3285
ltibia 25.1713
lfoot -12.2301 1.65926
ltoes 15.1453
387
root -0.575946 17.4033 13.4125 51.8592 83.2418 46.4655
lowerback 8.7123 0.740991 -3.84822
upperback 0.0749974 0.639049 0.581118
thorax -4.86322 0.418972 2.69021
lowerneck -17.5187 -3.47478 -9.04464
upperneck 21.886 -2.89695 3.27609
head 10.0697 -1.6442 2.27139
rclavicle -1.09332e-015 -5.56597e-015
rhumerus -28.8606 -14.3164 -80.8169
rradius 34.3702
rwrist 3.78588
rhand -15.5846 11.2715
rfingers 7.12502
rthumb 10.6009 -18.4411
lclavicle -1.09332e-015 -5.56597e-015
lhumerus -31.2218 17.9241 81.5186
lradius 25.3021
lwrist -10.4796
lhand -18.1187 23.2241
lfingers 7.12502
lthumb 8.15579 53.0467
rfemur -31.3101 -10.4619 14.4451
rtibia 64.4006
rfoot -9.86523 -4.54453
rtoes 0.0362601
lfemur -16.2047 0.139393 -32.7777
ltibia 25.7731
lfoot -13.0572 1.81546
ltoes 13.1053
388
root -0.445382 17.3701 13.4479 50.5138 83.5617 45.2818
lowerback 8.80859 0.687448 -3.53033
upperback 0.159363 0.600255 0.610741
thorax -4.82257 0.391205 2.54653
lowerneck -17.5866 -3.51092 -8.99273
upperneck 21.7797 -2.94782 3.23004
head 10.046 -1.66817 2.23738
rclavicle -7.25564e-015 1.74931e-014
rhumerus -28.9944 -15.0112 -80.635
rradius 34.0334
rwrist 5.82265
rhand -14.3704 11.4963
rfingers 7.12502
rthumb 11.7719 -18.1529
lclavicle -7.25564e-015 1.74931e-014
lhumerus -30.7691 17.0802 81.9572
lradius 26.1277
lwrist -9.5054
lhand -18.3676 23.4315
lfingers 7.12502
lthumb 7.91559 53.2633
rfemur -31.983 -9.72365 14.754
rtibia 63.1837
rfoot -10.4068 -4.53335
rtoes 0.0970586
lfemur -15.8038 0.763721 -32.5219
ltibia 26.3253
lfoot -13.7954 2.01709
ltoes 9.16303
